<svg width="26" height="26" viewBox="0 0 26 26" fill="none" xmlns="http://www.w3.org/2000/svg">
<path fill-rule="evenodd" clip-rule="evenodd" d="M13.9751 15.0589C13.9751 15.3644 13.7275 15.612 13.422 15.612H12.5783C12.2728 15.612 12.0251 15.3644 12.0251 15.0589V9.01453C12.0251 8.70903 12.2728 8.46203 12.5783 8.46203H13.422C13.7275 8.46203 13.9751 8.70903 13.9751 9.01453V15.0589ZM13.9751 19.6089C13.9751 19.9144 13.7275 20.162 13.422 20.162H12.5783C12.2728 20.162 12.0251 19.9144 12.0251 19.6089V18.1256C12.0251 17.8201 12.2728 17.5724 12.5783 17.5724H13.422C13.7275 17.5724 13.9751 17.8201 13.9751 18.1256V19.6089ZM24.524 20.4532L13.8887 2.93638C13.4655 2.23893 12.4535 2.23958 12.031 2.93768L1.48214 20.3557C1.04404 21.0779 1.56209 22.0015 2.40644 22.0054L23.5899 22.1029C24.4395 22.1068 24.9647 21.1793 24.524 20.4532V20.4532Z" fill="white"/>
</svg>
