<svg width="134" height="41" viewBox="0 0 134 41" fill="none" xmlns="http://www.w3.org/2000/svg">
<path d="M34.1165 37.3317L32.6421 35.2903V33.7679C32.6421 33.5969 32.5033 33.4584 32.3319 33.4584H32.3239C32.1526 33.4584 32.0138 33.5969 32.0138 33.7679V35.2181L30.4882 37.3317C30.3853 37.4735 30.4212 37.6724 30.5673 37.7705C30.7061 37.8633 30.894 37.8295 30.9917 37.6942L32.0138 36.2785V37.506C32.0138 37.677 32.1526 37.8155 32.3239 37.8155H32.3312C32.5026 37.8155 32.6414 37.677 32.6414 37.506V36.3488L33.6124 37.6936C33.71 37.8288 33.898 37.8626 34.0368 37.7698C34.1835 37.673 34.2194 37.4742 34.1165 37.3317Z" fill="#4C4948"/>
<path d="M47.2028 27.5239C43.3049 26.2712 39.0537 27.1633 36.002 29.8483C36.9238 30.4845 37.9307 30.9797 39.0099 31.3263H39.0106C39.3367 31.431 39.6654 31.5152 39.9955 31.5901C41.2467 31.6769 42.5226 31.3389 43.5792 30.5608C43.4185 30.7801 43.2458 30.9929 43.0479 31.1911C42.7876 31.4522 42.5053 31.6769 42.2098 31.8737C45.1134 31.9626 47.9818 30.9631 50.2107 29.0026C49.2889 28.3663 48.282 27.8705 47.2028 27.5239Z" fill="url(#paint0_linear)"/>
<path d="M52.6547 30.23C52.7497 30.224 52.7756 30.0994 52.6899 30.0583L48.379 27.9772C47.7102 27.6557 46.9072 27.9361 46.5851 28.6035L44.5024 32.9169C44.335 33.2629 43.8495 33.426 43.4371 33.5028C43.2558 33.5366 43.2252 33.7825 43.3906 33.8627L47.655 35.9213C48.3238 36.2428 49.1268 35.9624 49.4489 35.295L51.5317 30.9816C51.7502 30.5302 52.1872 30.2592 52.6547 30.23Z" fill="url(#paint1_linear)"/>
<path d="M49.7704 31.6317C50.1051 30.8119 49.7099 29.8767 48.889 29.5433C48.0675 29.2092 47.1304 29.6036 46.7963 30.4228C46.6854 30.6952 46.6562 30.9802 46.6947 31.2519L46.6927 31.2513L46.9478 33.8328L46.9491 33.8335C46.957 33.9038 47.0015 33.9674 47.0719 33.9959C47.1423 34.0244 47.2187 34.0098 47.2738 33.9654L47.2745 33.9661L49.2643 32.2972L49.263 32.2965C49.4801 32.1282 49.6588 31.9041 49.7704 31.6317ZM47.9798 31.7689C47.5694 31.6019 47.3715 31.1346 47.5388 30.7244C47.7062 30.3148 48.1744 30.1173 48.5855 30.2843C48.996 30.4513 49.1939 30.9186 49.0265 31.3288C48.8592 31.7391 48.3909 31.9359 47.9798 31.7689Z" fill="white"/>
<path d="M27.6039 29.5573C28.3504 27.2448 29.8202 25.1683 31.8126 23.86C29.1241 22.0605 27.6524 18.7572 28.3537 15.4008C28.806 13.2362 30.0792 11.4533 31.7801 10.304L33.3229 5.90377C33.3899 5.71223 33.6423 5.66848 33.7705 5.82623L35.9947 8.56354C36.5028 8.58408 37.0162 8.64174 37.5302 8.74845L47.3409 10.7905C47.8291 10.8919 48.298 11.0337 48.7502 11.2047L51.8637 9.59417C52.0464 9.50005 52.2616 9.64189 52.2463 9.84603L51.8983 14.4902C52.9968 16.222 53.449 18.3642 52.9968 20.5288C52.1161 24.7435 48.1293 27.5146 43.9213 26.9632C43.89 27.1779 43.8356 27.3926 43.7526 27.6041C42.0484 31.946 37.8131 35.0207 32.858 35.0207C29.8049 35.0207 27.0281 33.8502 24.944 32.0401C26.0923 31.5914 27.3296 30.4057 27.6039 29.5573Z" fill="url(#paint2_linear)"/>
<path d="M52.9967 20.5294C53.449 18.3648 52.9967 16.2226 51.8982 14.4908L52.2462 9.84664C52.2615 9.64184 52.0463 9.5 51.8637 9.59478L48.7502 11.2053C48.2986 11.0344 47.829 10.8925 47.3409 10.7911L37.5302 8.74906C37.0154 8.64169 36.5027 8.58403 35.9947 8.56415L33.7698 5.82684C33.6416 5.66909 33.3892 5.71284 33.3221 5.90438L31.7793 10.3046C30.0791 11.4539 28.806 13.2368 28.353 15.4015C27.6517 18.7585 29.1234 22.0618 31.8119 23.8606C36.4018 27.4045 43.9205 26.9651 43.9205 26.9651C46.6382 27.3594 49.049 26.1214 49.7809 25.4798C51.3762 24.3272 52.563 22.604 52.9967 20.5294Z" fill="url(#paint3_linear)"/>
<path d="M52.0928 9.5901C52.0238 9.55828 51.9414 9.55431 51.8637 9.59407L48.7502 11.2046C48.2986 11.0336 47.8291 10.8918 47.3409 10.7904L37.5302 8.74836C37.0155 8.64099 36.5028 8.58332 35.9947 8.56344L33.7698 5.82613C33.6908 5.7287 33.5666 5.71611 33.4656 5.75985L34.4605 11.1251L40.2432 18.4893L49.5917 15.1502L52.0928 9.5901Z" fill="url(#paint4_linear)"/>
<path d="M51.6439 19.687C52.2124 17.0948 50.8669 14.4271 48.4434 13.3441C48.0907 13.1864 47.7188 13.0638 47.3376 12.9809C44.5303 12.3678 41.7482 13.9671 40.8144 16.605C41.1299 14.1693 39.8049 11.7574 37.5309 10.7414C37.1782 10.5836 36.8063 10.4617 36.4251 10.3781C33.3853 9.71403 30.3707 11.6414 29.7053 14.675C29.1368 17.2671 30.4823 19.9349 32.9058 21.0179C33.2584 21.1756 33.6304 21.2976 34.0116 21.3811C36.8189 21.9941 39.601 20.3948 40.5348 17.7569C40.2193 20.1927 41.5443 22.6046 43.8183 23.6206C44.171 23.7784 44.5429 23.901 44.9241 23.9838C47.9639 24.6479 50.9784 22.7212 51.6439 19.687Z" fill="url(#paint5_linear)"/>
<path d="M36.443 25.6058C36.4423 25.6025 36.4416 25.5991 36.441 25.5958C36.3473 25.0663 35.7908 24.7382 35.2827 24.9178C31.3158 26.3222 28.5715 29.943 28.2368 34.0768C29.6554 34.6727 31.2148 35.0206 32.8586 35.0206C33.0492 35.0206 33.2371 35.0081 33.4258 34.9988C35.8246 32.6313 37.0686 29.1749 36.443 25.6058Z" fill="url(#paint6_linear)"/>
<path d="M35.7457 24.7971C36.2624 24.7864 36.6708 25.253 36.5951 25.7634C36.5944 25.7667 36.5944 25.77 36.5938 25.7727C35.8034 31.0876 31.0395 34.8303 25.7563 34.4519C25.7736 34.1364 25.8041 33.8189 25.8513 33.5001C26.5944 28.504 30.8496 24.8971 35.7457 24.7971Z" fill="url(#paint7_linear)"/>
<path d="M32.8367 26.4792C33.2318 26.3341 33.633 26.2181 34.0388 26.1293C34.7116 25.9835 35.29 26.6177 35.0629 27.2666C34.8258 27.944 34.5083 28.5842 34.1245 29.1801C34.1065 28.9428 34.0693 28.7035 34.0096 28.4649C33.9564 28.2515 33.8827 28.0487 33.8004 27.8525C33.8814 28.7194 33.6868 29.5632 33.2837 30.2902C32.8566 30.7714 32.3778 31.2082 31.8544 31.5913C31.9434 31.3248 32.0092 31.0471 32.0444 30.7575C32.0703 30.5394 32.0742 30.324 32.0676 30.1106C31.7907 31.1055 31.163 31.9326 30.3435 32.4834C30.1044 32.5954 29.8613 32.7008 29.6103 32.7929C29.6103 32.7929 29.6103 32.7929 29.6096 32.7929C28.7735 33.0998 27.9094 33.2794 27.0294 33.3318C27.6152 30.1948 29.8148 27.5874 32.8367 26.4792Z" fill="white"/>
<path d="M34.9699 20.7475C37.7576 20.7475 40.0174 18.4922 40.0174 15.7103C40.0174 12.9283 37.7576 10.6731 34.9699 10.6731C32.1823 10.6731 29.9224 12.9283 29.9224 15.7103C29.9224 18.4922 32.1823 20.7475 34.9699 20.7475Z" fill="white"/>
<path d="M32.9549 18.9858C34.3337 18.9858 35.4514 17.8703 35.4514 16.4943C35.4514 15.1184 34.3337 14.0029 32.9549 14.0029C31.5761 14.0029 30.4584 15.1184 30.4584 16.4943C30.4584 17.8703 31.5761 18.9858 32.9549 18.9858Z" fill="#4C4948"/>
<path d="M46.437 23.5259C49.2247 23.5259 51.4845 21.2707 51.4845 18.4887C51.4845 15.7068 49.2247 13.4515 46.437 13.4515C43.6494 13.4515 41.3895 15.7068 41.3895 18.4887C41.3895 21.2707 43.6494 23.5259 46.437 23.5259Z" fill="white"/>
<path d="M44.7913 21.8537C46.17 21.8537 47.2878 20.7382 47.2878 19.3623C47.2878 17.9863 46.17 16.8708 44.7913 16.8708C43.4125 16.8708 42.2947 17.9863 42.2947 19.3623C42.2947 20.7382 43.4125 21.8537 44.7913 21.8537Z" fill="#4C4948"/>
<path d="M17.2957 27.0141C17.5441 26.5025 17.2632 25.8814 16.7166 25.7217C16.7133 25.721 16.71 25.7197 16.7066 25.7191C12.9024 24.6142 8.98798 25.6051 6.19592 28.0083L8.48788 33.2682C12.2376 32.8221 15.6022 30.5031 17.2957 27.0141Z" fill="url(#paint8_linear)"/>
<path d="M10.0957 28.4206C9.48208 27.7399 8.6094 27.4337 7.76062 27.5092C7.22466 27.4847 6.69135 27.2965 6.23907 26.9644L6.24305 26.9611C6.08565 26.8471 5.93556 26.7192 5.79941 26.5688L4.74143 25.3956C4.64247 25.2863 4.47311 25.277 4.36353 25.3757L3.88402 25.8065C3.77444 25.9053 3.76514 26.0743 3.8641 26.1837L4.92207 27.3568C5.05756 27.5073 5.1698 27.6696 5.26677 27.838L5.27075 27.8347C5.55367 28.3185 5.68584 28.868 5.65462 29.4022C5.49058 30.2366 5.70444 31.134 6.31877 31.8147C6.35065 31.8498 6.38452 31.8803 6.41772 31.9135C6.44097 31.9406 6.46023 31.9705 6.48414 31.9976L10.6921 36.6617C10.8655 36.8539 11.1624 36.8691 11.355 36.6961L14.4353 33.9283C14.6279 33.7553 14.6431 33.4591 14.4698 33.2669L10.2618 28.6028C10.2379 28.5763 10.21 28.5545 10.1854 28.5286C10.1542 28.4928 10.127 28.4557 10.0957 28.4206Z" fill="url(#paint9_linear)"/>
<path d="M13.8754 32.61L11.7236 34.5434C11.4433 34.7952 11.0117 34.7727 10.7599 34.493L8.00375 31.4375C7.75138 31.1578 7.77396 30.727 8.05423 30.4758L10.206 28.5425L13.8754 32.61Z" fill="white"/>
<path d="M30.2146 31.2175L31.0973 29.7912C30.7891 29.4366 30.5587 29.0761 30.4517 28.7453C29.5625 25.9908 27.8118 23.5173 25.4388 21.9591C28.6406 19.8163 30.3933 15.8813 29.5578 11.8834C29.0192 9.30513 27.503 7.18156 25.4773 5.81291L23.6403 0.572256C23.5599 0.343594 23.2597 0.291897 23.107 0.479466L20.4577 3.73971C19.852 3.76424 19.2417 3.8325 18.6287 3.96042L6.94309 6.39285C6.36196 6.51414 5.80275 6.68315 5.2648 6.88729L1.55622 4.96918C1.33905 4.85651 1.08269 5.02552 1.10062 5.26942L1.51571 10.801C0.207348 12.8636 -0.331936 15.4154 0.207348 17.9936C1.25669 23.0129 6.00465 26.3136 11.0169 25.6574C11.0541 25.9132 11.1186 26.1691 11.2175 26.4203C13.2471 31.5913 18.292 35.2539 24.1929 35.2539C26.9364 35.2539 29.4934 34.4605 31.6499 33.0939L30.2146 31.2175Z" fill="url(#paint10_linear)"/>
<path d="M29.5578 11.884C29.0192 9.30574 27.503 7.18217 25.4773 5.81352L23.6403 0.572866C23.5599 0.344205 23.2597 0.292507 23.107 0.480076L20.4577 3.74032C19.852 3.76485 19.2417 3.83311 18.6287 3.96103L6.94309 6.39346C6.36196 6.51409 5.80275 6.6831 5.2648 6.88723L1.55622 4.96913C1.33905 4.85646 1.08269 5.02547 1.10062 5.26937L1.51571 10.801C0.207348 12.8636 -0.331936 15.4153 0.207348 17.9935C1.25669 23.0128 6.00465 26.3135 11.0169 25.6573C15.6181 25.0635 22.8599 23.7936 25.4388 21.9597C28.6406 19.8169 30.3933 15.8819 29.5578 11.884Z" fill="url(#paint11_linear)"/>
<path d="M14.6153 13.217L22.1593 6.77733L23.4052 0.371499C23.2996 0.351616 23.1847 0.384755 23.107 0.480196L20.4577 3.74044C19.852 3.76497 19.2417 3.83323 18.6287 3.96115L6.9431 6.39358C6.36198 6.51421 5.80277 6.68322 5.26481 6.88736L1.55624 4.96925C1.44466 4.91159 1.32379 4.92882 1.23413 4.99112L4.65779 10.1304L14.6153 13.217Z" fill="url(#paint12_linear)"/>
<path d="M27.0361 11.4274C26.4311 8.53231 23.8442 6.43127 20.8855 6.43127C20.4544 6.43127 20.0201 6.47634 19.595 6.56449C16.4596 7.21734 14.3609 10.1091 14.6153 13.2162C13.8243 10.5956 11.3756 8.74506 8.59882 8.74506C8.16779 8.74506 7.73344 8.79013 7.30839 8.87828C3.91396 9.58481 1.7276 12.9153 2.43557 16.3035C3.04061 19.1985 5.62744 21.2996 8.5862 21.2996C9.01723 21.2996 9.45092 21.2545 9.87663 21.1663C13.012 20.5135 15.1107 17.6218 14.8564 14.5146C15.6474 17.1353 18.0961 18.9858 20.8728 18.9858C21.3039 18.9858 21.7382 18.9407 22.1633 18.8526C25.5577 18.1467 27.7434 14.8155 27.0361 11.4274Z" fill="url(#paint13_linear)"/>
<path d="M8.13722 20.0847C11.0786 20.0847 13.463 17.7052 13.463 14.7698C13.463 11.8345 11.0786 9.45496 8.13722 9.45496C5.19589 9.45496 2.81146 11.8345 2.81146 14.7698C2.81146 17.7052 5.19589 20.0847 8.13722 20.0847Z" fill="white"/>
<path d="M7.01813 15.5466C8.24176 15.5466 9.23371 14.5567 9.23371 13.3356C9.23371 12.1144 8.24176 11.1245 7.01813 11.1245C5.7945 11.1245 4.80255 12.1144 4.80255 13.3356C4.80255 14.5567 5.7945 15.5466 7.01813 15.5466Z" fill="#4C4948"/>
<path d="M30.3694 33.8043C30.1443 28.8593 27.0547 24.6373 22.3937 22.7544C21.7927 22.5111 21.094 22.6523 20.9538 23.2846C20.9532 23.2886 20.9519 23.2925 20.9512 23.2965C19.959 27.7922 21.4686 32.2534 24.5515 35.2406C26.6389 35.1876 28.6088 34.6772 30.3694 33.8043Z" fill="url(#paint14_linear)"/>
<path d="M22.7935 37.3317L21.3191 35.2903V33.7679C21.3191 33.5969 21.1803 33.4584 21.009 33.4584H21.0017C20.8303 33.4584 20.6915 33.5969 20.6915 33.7679V35.2181L19.166 37.3317C19.063 37.4735 19.0989 37.6724 19.245 37.7705C19.3838 37.8633 19.5718 37.8295 19.6694 37.6942L20.6915 36.2785V37.506C20.6915 37.677 20.8303 37.8155 21.0017 37.8155H21.009C21.1803 37.8155 21.3191 37.677 21.3191 37.506V36.3488L22.2901 37.6936C22.3877 37.8288 22.5757 37.8626 22.7145 37.7698C22.8606 37.673 22.8965 37.4742 22.7935 37.3317Z" fill="#4C4948"/>
<path d="M28.4553 37.3317L26.9809 35.2903V33.7679C26.9809 33.5969 26.8421 33.4584 26.6708 33.4584H26.6635C26.4921 33.4584 26.3533 33.5969 26.3533 33.7679V35.2181L24.8278 37.3317C24.7248 37.4735 24.7607 37.6724 24.9068 37.7705C25.0456 37.8633 25.2336 37.8295 25.3312 37.6942L26.3533 36.2785V37.506C26.3533 37.677 26.4921 37.8155 26.6635 37.8155H26.6708C26.8421 37.8155 26.9809 37.677 26.9809 37.506V36.3488L27.9519 37.6936C28.0495 37.8288 28.2375 37.8626 28.3763 37.7698C28.5217 37.673 28.5576 37.4742 28.4553 37.3317Z" fill="#4C4948"/>
<path d="M13.5985 20.8634C13.9877 22.1591 15.4435 23.7452 18.0828 24.0647C18.2687 24.0872 18.4049 23.897 18.3259 23.728C17.5242 22.018 18.4082 20.6056 17.8032 19.174C17.5189 18.5012 16.4397 17.2737 14.9022 17.8994C13.6177 18.4217 13.3049 19.8845 13.5985 20.8634Z" fill="url(#paint15_linear)"/>
<path d="M20.9977 17.4077C23.939 17.4077 26.3235 15.0282 26.3235 12.0928C26.3235 9.15751 23.939 6.77795 20.9977 6.77795C18.0564 6.77795 15.6719 9.15751 15.6719 12.0928C15.6719 15.0282 18.0564 17.4077 20.9977 17.4077Z" fill="white"/>
<path d="M20.6483 15.8302C21.872 15.8302 22.8639 14.8403 22.8639 13.6191C22.8639 12.398 21.872 11.4081 20.6483 11.4081C19.4247 11.4081 18.4327 12.398 18.4327 13.6191C18.4327 14.8403 19.4247 15.8302 20.6483 15.8302Z" fill="#4C4948"/>
<path d="M21.8916 22.4615C21.2799 22.3912 20.744 22.8989 20.7765 23.5126C20.7765 23.5166 20.7772 23.5206 20.7772 23.5239C21.1205 29.9145 26.3513 34.8828 32.658 35.0219C32.6726 34.6461 32.6726 34.2664 32.652 33.8826C32.3293 27.8758 27.6869 23.1249 21.8916 22.4615Z" fill="url(#paint16_linear)"/>
<path d="M25.1539 24.7805C24.7016 24.5645 24.2387 24.3822 23.7672 24.2324C22.9861 23.9845 22.229 24.6725 22.4256 25.4665C22.6308 26.2957 22.9357 27.091 23.3248 27.8399C23.3727 27.5602 23.4437 27.2812 23.5407 27.0048C23.6277 26.7576 23.7373 26.5256 23.8575 26.3016C23.6642 27.3203 23.801 28.343 24.1982 29.2504C24.6511 29.8687 25.1698 30.4394 25.7483 30.9524C25.6726 30.627 25.6254 30.2903 25.6161 29.943C25.6095 29.6812 25.6288 29.4253 25.6613 29.1735C25.8785 30.3837 26.5307 31.4342 27.4412 32.1792C27.7122 32.3389 27.9891 32.4907 28.276 32.6279C28.276 32.6279 28.276 32.6279 28.2767 32.6279C29.2344 33.0846 30.2386 33.3941 31.276 33.5538C30.9299 29.7673 28.6128 26.4309 25.1539 24.7805Z" fill="white"/>
<path d="M13.4636 19.8554C13.4603 21.0371 14.2812 22.7339 16.4217 23.6591C16.5559 23.7168 16.6993 23.5988 16.6774 23.455C16.4231 21.8132 17.5295 20.8568 17.3861 19.5061C17.319 18.8751 16.7312 17.5833 15.2953 17.7179C14.0946 17.8299 13.4663 18.9672 13.4636 19.8554Z" fill="#FDD23E"/>
<path d="M14.861 17.8093C13.9438 18.1182 13.4656 19.0812 13.4636 19.8553C13.4603 21.045 14.2918 22.757 16.4649 23.6776C16.5247 23.7028 16.5745 23.6266 16.5293 23.5802C14.7514 21.7708 14.3071 18.8943 14.861 17.8093Z" fill="url(#paint17_linear)"/>
<path d="M40.7626 23.4033C40.2133 24.3517 38.7688 25.33 36.6296 25.0894C36.4788 25.0722 36.4071 24.8972 36.5014 24.7786C37.4538 23.5809 37.0214 22.303 37.7666 21.2877C38.1166 20.8104 39.1965 20.0443 40.291 20.8244C41.2049 21.4752 41.1776 22.6861 40.7626 23.4033Z" fill="url(#paint18_linear)"/>
<path d="M41.088 22.5476C40.9253 23.4304 40.0752 24.5844 38.3464 24.9774C38.2382 25.0019 38.1472 24.8939 38.1844 24.7892C38.6041 23.5981 37.9114 22.7299 38.207 21.7403C38.3451 21.2784 38.9648 20.3949 40.0187 20.6958C40.8994 20.9463 41.2102 21.8835 41.088 22.5476Z" fill="#FDD23E"/>
<path d="M40.3302 20.8243C40.9724 21.1829 41.1949 21.969 41.088 22.5476C40.9239 23.4364 40.0632 24.6002 38.3112 24.9853C38.2634 24.9959 38.2368 24.9316 38.2767 24.9038C39.858 23.7996 40.5925 21.7125 40.3302 20.8243Z" fill="url(#paint19_linear)"/>
<path fill-rule="evenodd" clip-rule="evenodd" d="M106.872 12.029C107.048 11.8984 107.224 11.7519 107.386 11.6061V15.5773H109.501V15.227H118.814V13.6356H114.187V13.2272H117.844V11.8838H114.187V11.5038H117.844V10.1605H114.187V9.76662H118.535V8.16007H114.437C114.275 7.69231 114.04 7.15196 113.805 6.71387L111.793 7.26937C111.91 7.54712 112.028 7.85328 112.131 8.16007H110.471L110.49 8.13076L110.491 8.13059L110.491 8.13047C110.689 7.83413 110.888 7.53677 111.073 7.22582L108.914 6.80224C108.223 8.05781 107.033 9.50338 105.388 10.6131C105.858 10.9048 106.534 11.5764 106.872 12.029ZM106.857 20.3521C108.428 20.0163 110.176 19.2272 111.22 18.3807L109.648 17.6649C108.766 18.1617 107.062 18.5701 105.549 18.7456C105.975 19.1401 106.563 19.8844 106.857 20.3521ZM119.284 19.1111C118.373 18.6875 116.713 18.0594 115.494 17.6358H119.181V15.9719H113.525V15.3438H111.395V15.9719H105.813V17.6358H111.395V20.6734H113.525V17.6358H114.98L113.849 18.702C115.141 19.2134 117.021 20.0018 117.917 20.4689L119.284 19.1111ZM109.5 9.76599H112.145V10.1599H109.5V9.76599ZM109.5 11.5038H112.145V11.8838H109.5V11.5038ZM109.5 13.2272H112.145V13.6356H109.5V13.2272ZM75.311 19.1256C74.2676 18.6875 72.4316 18.0594 70.8598 17.5487V17.5481H75.1928V15.8248H69.2144C69.2213 15.728 69.2316 15.6281 69.2422 15.5264C69.2539 15.4133 69.2658 15.2979 69.2735 15.1821H67.0406C67.026 15.4163 67.0108 15.6202 66.9816 15.8248H61.6934V17.5481H66.3351C65.6594 18.2627 64.2934 18.6572 61.3994 18.8908C61.7525 19.3295 62.2218 20.147 62.3545 20.6728C66.6291 20.2202 68.2009 19.2418 68.8327 17.5481H69.2735L68.6124 18.5701C70.3893 19.1982 73.0489 20.1912 74.3266 20.7896L75.311 19.1256ZM62.7959 15.3734H64.7785H64.7792V9.41563H72.095V13.8546C72.095 13.9708 72.0652 14.015 71.9477 14.015H71.8893C71.4187 13.6936 70.6109 13.241 69.8469 12.8617H71.7419V11.6642H70.8313L70.886 11.5781L70.886 11.5781L70.886 11.5781L70.886 11.578C70.9755 11.437 71.0765 11.2778 71.1983 11.1087L69.9352 10.7728C69.8761 11.007 69.7434 11.3719 69.6266 11.6642H69.2004V10.8025C70.0965 10.7444 70.9634 10.6567 71.6829 10.5399L70.8751 9.48886C69.4938 9.7079 67.1581 9.82468 65.2193 9.85372C65.3514 10.1315 65.4981 10.5986 65.5425 10.8909C65.9242 10.9054 66.3205 10.9054 66.7174 10.9054L65.7775 11.1535C65.8359 11.2999 65.9096 11.4893 65.968 11.6648H65.1894V12.8623H66.9962C66.4087 13.373 65.6009 13.8553 64.837 14.1179C65.1602 14.3805 65.6009 14.9063 65.8359 15.2421C66.4532 14.965 67.0844 14.5118 67.628 14.0156V14.7895H69.1998V14.0004C69.9054 14.395 70.5957 14.8179 71.0065 15.1247L71.6238 14.3356C71.815 14.7302 72.0207 15.1973 72.109 15.5476C72.6672 15.5476 73.181 15.518 73.6071 15.2554C74.0339 14.9783 74.1507 14.5837 74.1507 13.854V7.77942H69.4945C69.612 7.54649 69.7294 7.28325 69.8469 7.00613L67.4966 6.83064C67.4375 7.10839 67.3493 7.44422 67.2464 7.78005H62.7959V15.3734ZM66.9377 10.8902C67.1581 10.8902 67.3931 10.8902 67.628 10.8757H67.6287V11.6642H67.2318C67.1733 11.4451 67.0552 11.1238 66.9377 10.8902ZM84.8572 10.0292H89.7484V7.80973H76.5132V10.0292H82.2858V17.7823C82.2858 18.0891 82.1391 18.1768 81.7721 18.1914C81.3605 18.1914 79.9653 18.1768 78.8927 18.1181C79.2896 18.7753 79.7888 19.914 79.9361 20.6299C81.4488 20.6299 82.7272 20.5718 83.6379 20.1918C84.5485 19.8263 84.8572 19.1988 84.8572 17.8265V10.0292ZM104.435 10.0292H99.5441V17.8265C99.5441 19.1988 99.2354 19.8263 98.3248 20.1918C97.4141 20.5718 96.1357 20.6299 94.623 20.6299C94.4757 19.914 93.9765 18.7753 93.5796 18.1181C94.6522 18.1768 96.0475 18.1914 96.459 18.1914C96.826 18.1768 96.9727 18.0891 96.9727 17.7823V10.0292H91.2001V7.80973H104.435V10.0292ZM133.56 7.21067V20.7031H131.532V20.0169H122.792V20.7031H120.868V7.21067H133.56ZM131.532 18.4394V8.78754H122.792V18.4394H131.532ZM130.504 15.446H131.297V16.5413H129.52V17.2129C129.52 17.8555 129.388 18.0746 128.933 18.1914C128.492 18.3227 127.889 18.3227 127.097 18.3227C127.023 17.9723 126.847 17.5929 126.7 17.3007C127.008 17.3152 127.464 17.3152 127.596 17.3152C127.728 17.3152 127.787 17.2716 127.787 17.1403V16.5419H125.701C125.995 16.8777 126.303 17.3007 126.45 17.5936L125.04 18.2646C124.893 17.9149 124.526 17.3594 124.203 16.9655L125.128 16.5419H122.954V15.4467H127.788V15.1695L126.919 15.1927L126.918 15.1928C125.578 15.2286 124.316 15.2624 123.263 15.2863L123.204 14.2056C123.598 14.2056 124.037 14.2087 124.508 14.2121C125.054 14.2159 125.644 14.2201 126.26 14.2201V13.8843H123.468V10.8764H126.26V10.526H123.159V9.43142H126.26V8.99333H127.978V9.43142H131.107V10.526H127.978V10.8764H130.798V13.8843H130.299C130.71 14.2056 131.078 14.5856 131.312 14.8627L130.504 15.446ZM125.054 11.9855H126.26V11.6642H125.054V11.9855ZM126.259 13.0807V12.7449H125.054V13.0807H126.259ZM127.977 11.6642V11.9855H129.123V11.6642H127.977ZM127.977 12.7449V13.0807H129.123V12.7449H127.977ZM127.977 13.8837V14.2195L128.785 14.205L128.757 14.1905L129.227 13.8837H127.977ZM129.52 15.446H130.064C129.961 15.3299 129.858 15.2125 129.74 15.0963L129.52 15.1102V15.446ZM77.5 32.702L78.6488 28.0364C78.6831 27.8975 78.8088 27.7997 78.9524 27.799H80.1088C80.3114 27.799 80.4606 27.9878 80.4124 28.1835L78.3833 36.4245C78.3491 36.5634 78.2239 36.6612 78.0798 36.6612H76.7119C76.5607 36.6612 76.4318 36.5539 76.4045 36.4062L75.7079 32.6162L75.0112 36.4062C74.9839 36.5539 74.855 36.6612 74.7038 36.6612H73.4032C73.2591 36.6612 73.134 36.564 73.0997 36.4251L71.0516 28.1841C71.0034 27.9884 71.152 27.799 71.3552 27.799H72.5116C72.6558 27.799 72.7809 27.8963 72.8152 28.0351L73.9411 32.5657L74.7699 28.0541C74.7972 27.9064 74.9261 27.799 75.0772 27.799H76.3385C76.4896 27.799 76.6185 27.9064 76.6458 28.0541L77.5 32.702ZM90.21 25.7222H85.2406C85.0679 25.7222 84.9282 25.8611 84.9282 26.0328V27.496C84.9282 27.6677 85.0679 27.8066 85.2406 27.8066H86.6771V36.3507C86.6771 36.5224 86.8169 36.6612 86.9896 36.6612H88.4616C88.6344 36.6612 88.7741 36.5224 88.7741 36.3507V27.8072H90.2093C90.3821 27.8072 90.5218 27.6684 90.5218 27.4967V26.0328C90.5224 25.8617 90.3821 25.7222 90.21 25.7222ZM81.9816 36.6619H83.4536C83.6264 36.6619 83.7661 36.523 83.7661 36.3519V26.0296C83.7661 25.8579 83.6264 25.7191 83.4536 25.7191H81.9816C81.8088 25.7191 81.6691 25.8579 81.6691 26.0296V36.3513C81.6691 36.523 81.8088 36.6619 81.9816 36.6619ZM91.997 36.6619H93.4691C93.6418 36.6619 93.7815 36.523 93.7815 36.3513V29.1594C93.7815 28.9877 93.6418 28.8489 93.4691 28.8489H91.997C91.8243 28.8489 91.6846 28.9877 91.6846 29.1594V36.3513C91.684 36.523 91.8243 36.6619 91.997 36.6619ZM91.684 26.0278V27.4923C91.684 27.664 91.8237 27.8029 91.9964 27.8029H93.4685C93.6412 27.8029 93.7809 27.664 93.7809 27.4923V26.0278C93.7809 25.8561 93.6412 25.7172 93.4685 25.7172H91.9964C91.8243 25.7172 91.684 25.8567 91.684 26.0278ZM65.7667 25.6004C67.8363 25.6206 69.5142 27.2158 69.7002 29.2339C69.8025 30.343 69.8838 32.9981 69.5948 33.938C69.076 35.6266 67.616 36.9276 65.7667 36.9459C63.9181 36.9283 62.4574 35.6266 61.9386 33.938C61.649 32.9974 61.7309 30.343 61.8332 29.2339C62.0192 27.2158 63.6971 25.6206 65.7667 25.6004ZM65.7667 34.782C66.5345 34.7662 67.2108 34.2839 67.4274 33.5914C67.7074 32.6963 67.7163 29.7654 67.4547 29.0432C67.1962 28.328 66.5643 27.7826 65.7667 27.765C64.9691 27.7826 64.3378 28.328 64.0787 29.0432C63.8171 29.7654 63.8253 32.6963 64.106 33.5914C64.3232 34.2839 64.9989 34.7662 65.7667 34.782ZM100.119 27.8016C99.1604 27.7852 98.2682 28.0636 97.5233 28.5471L97.5239 28.3962H97.5233V28.1141C97.5233 27.9424 97.3836 27.8035 97.2108 27.8035H95.7388C95.566 27.8035 95.4263 27.9424 95.4263 28.1141V36.3538C95.4263 36.5255 95.566 36.6644 95.7388 36.6644H97.2108C97.3836 36.6644 97.5233 36.5255 97.5233 36.3538V32.3851C97.5233 30.6182 98.6156 29.9213 99.9714 29.886V36.3456C99.9714 36.5173 100.111 36.6562 100.284 36.6562H101.756C101.929 36.6562 102.068 36.5173 102.068 36.3456V29.8185C102.069 28.7358 101.209 27.8205 100.119 27.8016ZM108.768 27.8028H110.24C110.412 27.8028 110.552 27.9424 110.553 28.1141V28.306V36.3513V36.8999C110.553 38.8094 108.99 40.3623 107.069 40.3623C106.215 40.3623 104.948 40.3623 103.512 39.3479C103.371 39.2481 103.344 39.0449 103.451 38.9098L104.37 37.7476C104.472 37.6195 104.656 37.6012 104.791 37.694C105.655 38.2905 106.377 38.3562 107.069 38.2773C107.789 38.1952 108.455 37.6593 108.455 36.8999V36.66C108.075 36.8109 107.663 36.8999 107.228 36.8999H106.709C105.185 36.8999 103.899 35.8728 103.509 34.4784C103.177 33.3857 103.231 31.2104 103.509 30.2231C103.901 28.8286 105.183 27.7997 106.709 27.7997H107.228C107.662 27.7997 108.075 27.8887 108.455 28.0396L108.47 28.0389C108.505 27.9045 108.622 27.8028 108.768 27.8028ZM107.58 34.7586C108.019 34.5996 108.366 34.2423 108.437 33.772C108.442 33.7441 108.445 33.7127 108.448 33.6809C108.45 33.6593 108.453 33.6376 108.455 33.6167V31.0854C108.454 31.0707 108.452 31.0555 108.45 31.0405C108.446 31.002 108.443 30.964 108.438 30.9345C108.368 30.468 108.022 30.1278 107.598 29.9466C107.31 29.8229 106.538 29.862 106.401 29.9289C105.933 30.0526 105.577 30.4459 105.5 30.9332C105.406 31.5209 105.359 32.9918 105.494 33.707C105.59 34.2139 105.93 34.6248 106.401 34.7687C106.684 34.8552 107.319 34.8533 107.58 34.7586Z" fill="white"/>
<defs>
<linearGradient id="paint0_linear" x1="39.8469" y1="29.3408" x2="49.9891" y2="29.5964" gradientUnits="userSpaceOnUse">
<stop offset="0.1054" stop-color="#006EB6"/>
<stop offset="0.5285" stop-color="#0099CC"/>
<stop offset="1" stop-color="#3DA1CD"/>
</linearGradient>
<linearGradient id="paint1_linear" x1="46.8656" y1="34.0223" x2="49.4914" y2="29.1448" gradientUnits="userSpaceOnUse">
<stop stop-color="#4C4948"/>
<stop offset="1" stop-color="#727171"/>
</linearGradient>
<linearGradient id="paint2_linear" x1="27.7513" y1="34.9398" x2="46.1682" y2="9.59539" gradientUnits="userSpaceOnUse">
<stop stop-color="#005AA0"/>
<stop offset="0.4685" stop-color="#0099CC"/>
<stop offset="1" stop-color="#3DA1CD"/>
</linearGradient>
<linearGradient id="paint3_linear" x1="56.7602" y1="10.2595" x2="30.9444" y2="19.7189" gradientUnits="userSpaceOnUse">
<stop stop-color="#D7E7AF"/>
<stop offset="0.9516" stop-color="#0099CC" stop-opacity="0"/>
</linearGradient>
<linearGradient id="paint4_linear" x1="42.6782" y1="3.7809" x2="42.9341" y2="13.6551" gradientUnits="userSpaceOnUse">
<stop offset="0.1054" stop-color="#006EB6"/>
<stop offset="1" stop-color="#3DA1CD" stop-opacity="0"/>
</linearGradient>
<linearGradient id="paint5_linear" x1="42.8618" y1="6.21392" x2="40.4299" y2="18.4624" gradientUnits="userSpaceOnUse">
<stop offset="0.1054" stop-color="#006EB6"/>
<stop offset="1" stop-color="#3DA1CD" stop-opacity="0"/>
</linearGradient>
<linearGradient id="paint6_linear" x1="31.79" y1="27.5267" x2="33.5832" y2="35.0898" gradientUnits="userSpaceOnUse">
<stop stop-color="#005AA0"/>
<stop offset="1" stop-color="#005AA0" stop-opacity="0"/>
</linearGradient>
<linearGradient id="paint7_linear" x1="29.6346" y1="30.6491" x2="41.105" y2="23.3058" gradientUnits="userSpaceOnUse">
<stop stop-color="#005AA0"/>
<stop offset="0.7389" stop-color="#0099CC"/>
<stop offset="1" stop-color="#3DA1CD"/>
</linearGradient>
<linearGradient id="paint8_linear" x1="14.7249" y1="26.8985" x2="6.31925" y2="31.5892" gradientUnits="userSpaceOnUse">
<stop offset="0.1464" stop-color="#D34C3A"/>
<stop offset="0.4996" stop-color="#EC6D4E"/>
<stop offset="1" stop-color="#EF8465"/>
</linearGradient>
<linearGradient id="paint9_linear" x1="12.8689" y1="34.0786" x2="3.12594" y2="27.8082" gradientUnits="userSpaceOnUse">
<stop stop-color="#4C4948"/>
<stop offset="1" stop-color="#727171"/>
</linearGradient>
<linearGradient id="paint10_linear" x1="26.3964" y1="34.5372" x2="9.78763" y2="6.00672" gradientUnits="userSpaceOnUse">
<stop stop-color="#D34C3A"/>
<stop offset="0.2874" stop-color="#EC6D4E"/>
<stop offset="1" stop-color="#EF8465"/>
</linearGradient>
<linearGradient id="paint11_linear" x1="-4.22654" y1="8.43073" x2="21.8855" y2="14.4169" gradientUnits="userSpaceOnUse">
<stop offset="0.0025" stop-color="#FABF13"/>
<stop offset="1" stop-color="#EF8465" stop-opacity="0"/>
</linearGradient>
<linearGradient id="paint12_linear" x1="12.365" y1="12.5544" x2="12.3009" y2="-1.48749" gradientUnits="userSpaceOnUse">
<stop stop-color="#DB4F3C" stop-opacity="0"/>
<stop offset="1" stop-color="#D34C3A"/>
</linearGradient>
<linearGradient id="paint13_linear" x1="15.8323" y1="19.8098" x2="12.2806" y2="0.475606" gradientUnits="userSpaceOnUse">
<stop stop-color="#DB4F3C" stop-opacity="0"/>
<stop offset="1" stop-color="#D34C3A"/>
</linearGradient>
<linearGradient id="paint14_linear" x1="25.7487" y1="32.5553" x2="24.72" y2="22.2059" gradientUnits="userSpaceOnUse">
<stop stop-color="#DB4F3C" stop-opacity="0"/>
<stop offset="1" stop-color="#D34C3A"/>
</linearGradient>
<linearGradient id="paint15_linear" x1="16.2399" y1="23.8314" x2="15.568" y2="18.7336" gradientUnits="userSpaceOnUse">
<stop stop-color="#DB4F3C" stop-opacity="0"/>
<stop offset="1" stop-color="#D34C3A"/>
</linearGradient>
<linearGradient id="paint16_linear" x1="22.322" y1="22.6154" x2="30.3596" y2="33.8016" gradientUnits="userSpaceOnUse">
<stop offset="0.4836" stop-color="#EC6D4E"/>
<stop offset="1" stop-color="#EF8465"/>
</linearGradient>
<linearGradient id="paint17_linear" x1="15.6696" y1="17.492" x2="14.944" y2="22.0683" gradientUnits="userSpaceOnUse">
<stop stop-color="#FCD475" stop-opacity="0"/>
<stop offset="1" stop-color="#E7A100"/>
</linearGradient>
<linearGradient id="paint18_linear" x1="42.2249" y1="22.1127" x2="36.9839" y2="23.0823" gradientUnits="userSpaceOnUse">
<stop stop-color="#005AA0"/>
<stop offset="1" stop-color="#005AA0" stop-opacity="0"/>
</linearGradient>
<linearGradient id="paint19_linear" x1="39.8592" y1="20.6839" x2="39.7646" y2="24.2039" gradientUnits="userSpaceOnUse">
<stop stop-color="#FCD475" stop-opacity="0"/>
<stop offset="1" stop-color="#E7A100"/>
</linearGradient>
</defs>
</svg>
