<svg xmlns="http://www.w3.org/2000/svg" width="128" height="30" fill="none"  xmlns:v="https://vecta.io/nano"><path d="M36.211 4.586h-2.334a.59.59 0 0 0-.571.459l-2.268 9.495-1.686-9.461c-.051-.286-.294-.494-.578-.494h-2.531c-.283 0-.527.208-.578.494l-1.636 9.185-2.221-9.22a.59.59 0 0 0-.571-.458h-2.334a.6.6 0 0 0-.571.747l4.047 16.79a.59.59 0 0 0 .571.458h2.607c.283 0 .527-.208.578-.494l1.375-7.719 1.375 7.719c.051.286.294.494.578.494H32.2a.59.59 0 0 0 .571-.459l4.01-16.79c.091-.38-.188-.745-.569-.745zM42.79.36h-2.955c-.325 0-.587.269-.587.602v21.016c0 .333.263.602.587.602h2.955c.325 0 .587-.269.587-.602V.962c0-.333-.263-.602-.587-.602zM7.933.121C3.857.16.552 3.4.186 7.498c-.202 2.252-.362 7.642.207 9.55 1.023 3.428 3.898 6.071 7.539 6.108 3.642-.037 6.517-2.679 7.54-6.108.569-1.91.408-7.299.207-9.55C15.312 3.4 12.007.16 7.933.121zm3.27 16.225c-.427 1.407-1.758 2.386-3.27 2.418-1.512-.032-2.843-1.011-3.27-2.418-.553-1.817-.569-7.768-.054-9.234.51-1.452 1.754-2.56 3.324-2.595 1.571.035 2.814 1.145 3.324 2.595.514 1.466.498 7.416-.054 9.235zM121.482 4.591c-4.354-.62-7.906 2.601-8.627 6.775a13.92 13.92 0 0 0 .052 4.723c.724 3.633 3.619 6.492 7.346 6.492h.827c2.612 0 4.971-1.265 6.464-3.336a.61.61 0 0 0-.238-.89l-2.768-1.339c-.234-.113-.502-.045-.684.143-.719.738-1.705 1.172-2.774 1.172h-.827c-1.83 0-3.313-1.52-3.313-3.395v-.03h10.473c.324 0 .587-.269.587-.602v-1.704c.001-3.932-2.717-7.468-6.518-8.009zm-4.142 6.767c.58-1.827 1.443-2.595 3.058-2.595 1.595 0 2.478.768 3.059 2.595h-6.117zM71.129 4.525c-.871.021-1.69.222-2.44.558a.59.59 0 0 0-.58-.568h-2.972c-.325 0-.587.269-.587.602v7.236c-.05.933-.055 1.877 0 2.776v14.269c0 .333.263.602.587.602h2.972c.325 0 .587-.269.587-.602v-7.342a6.09 6.09 0 0 0 2.43.506h.007c3.361 0 5.958-2.659 6.432-5.998.258-1.825.24-4.009-.007-5.966-.426-3.35-3.079-5.989-6.43-6.073zm2.244 12.07c-.314.983-1.18 1.718-2.24 1.718h-.007c-1.061 0-1.928-.734-2.24-1.718-.075-.235-.14-.704-.188-1.275v-3.554c.046-.472.111-.902.21-1.217a2.51 2.51 0 0 1 2.222-1.765 2.51 2.51 0 0 1 2.222 1.765c.462 1.466.292 5.197.021 6.046zm-16.31-6.86l-3.721-.905c-.988-.241-1.643-1.205-1.518-2.238l.05-.411a2.03 2.03 0 0 1 2.018-1.798c1.457.001 3.013.401 4.707 1.171a.59.59 0 0 0 .658-.105l2.416-2.322a.64.64 0 0 0-.144-1.016C58.696.626 56.083-.063 53.544.005c-3.046.081-5.538 2.533-5.913 5.632l-.041.346c-.401 3.318 1.66 6.357 4.777 7.115l3.801.924c1.012.246 1.768 1.319 1.598 2.37-.206 1.275-1.251 2.255-2.463 2.298-1.929.065-3.605-.486-5.021-1.591-.229-.178-.543-.183-.763.01-.726.637-1.681 1.462-2.415 2.046-.3.238-.321.705-.033.959a11.58 11.58 0 0 0 6.215 2.851c.701.094 1.422.129 2.16.105 3.454-.12 6.275-2.867 6.604-6.482.289-3.209-1.927-6.107-4.987-6.852zm37.729-5.206H91.82c-.299 0-.536.232-.574.528a6.16 6.16 0 0 0-2.486-.531h-2.091c-3.329 0-5.979 2.601-6.423 5.904-.272 2.02-.229 3.772-.054 5.7.323 3.558 2.965 6.45 6.477 6.45h2.091c.894 0 1.729-.191 2.486-.528.037.296.274.528.574.528h2.971c.325 0 .587-.269.587-.602V5.131c0-.331-.263-.602-.587-.602zm-3.559 10.464c-.036.416-.082.826-.147 1.198-.188 1.074-.991 1.775-1.986 2.106-.321.106-.838.176-1.383.196-.546-.02-1.064-.089-1.384-.196-.995-.33-1.798-1.031-1.986-2.106-.294-1.679-.294-3.962.017-5.441.192-.915.857-1.632 1.718-1.887.481-.142 1.056-.22 1.636-.222.58.003 1.155.081 1.636.222.861.254 1.526.972 1.718 1.887.072.344.124.739.163 1.153v3.089h-.003zm12.62-5.959c.337-.245 2.386-.823 3.411.401.066.079.18.204.256.322.146.227.435.306.683.207l2.8-1.122c.315-.126.479-.509.326-.817-1.063-2.143-3.19-3.496-5.577-3.496h-.915c-2.916 0-5.34 2.055-6.043 4.821-.604 2.383-.418 6.047-.105 7.984a6.25 6.25 0 0 0 6.147 5.25h.915c2.387 0 4.512-1.353 5.576-3.496.154-.309-.009-.691-.326-.817l-2.8-1.122c-.247-.099-.536-.02-.683.207-.076.119-.175.217-.268.32-.709.793-2.179 1.082-3.268.453-.407-.235-.786-.513-.998-.935-.778-1.543-.624-5.741-.038-7.203.174-.425.539-.688.907-.955z" fill="#fff"/></svg>